<svg width="162" height="67" fill="none" xmlns="http://www.w3.org/2000/svg"><g fill="#F80B10"><path d="M74.41.22c-2.082.675-3.912 2.428-4.683 4.49-.597 1.599-.5 4.123.232 5.683.655 1.407 2.061 2.813 3.525 3.545 1.04.501 1.35.56 3.083.56 1.715 0 2.062-.059 3.102-.54 1.484-.694 2.967-2.177 3.68-3.7.462-1.001.54-1.387.54-2.986 0-1.599-.078-1.984-.54-3.006-.694-1.483-2.177-2.967-3.7-3.68-.924-.423-1.463-.539-2.793-.578-1.002-.038-1.965.058-2.447.212ZM1.888 19.083C.636 19.757.115 20.875.019 23.226c-.135 2.986.443 4.585 1.927 5.356.635.327 2.64.366 5.626.115 1.117-.096 1.714-.077 1.772.058.02.096.328 1.58.675 3.276 2.37 12.022 7.013 21.56 13.467 27.705C28.553 64.553 34.353 67 40.73 67c4.123 0 7.591-.829 11.56-2.774 9.152-4.509 16.647-13.93 20.693-26.088 1.426-4.277 1.483-5.973.231-7.167-.828-.81-2.35-1.349-3.7-1.349-1.579 0-2.08.636-4.7 5.8-3.256 6.396-5.588 9.748-9.113 13.101-2.813 2.697-6.127 4.663-9.287 5.568-1.811.52-5.8.732-7.553.405-8.227-1.56-15.105-8.67-18.554-19.19-.694-2.081-1.927-7.206-1.772-7.34.019-.02 1.714-.174 3.776-.348 4.142-.327 4.836-.54 5.452-1.676.309-.54.366-.925.29-2.293-.174-2.793-1.022-4.373-2.602-4.816-.443-.116-4.759-.193-11.714-.193H2.736l-.848.443ZM125.273 32.531c-1.329.135-2.1.54-2.37 1.252-.27.675-.25 19.845 0 21.464.289 1.715 1.272 3.757 2.409 4.874 1.868 1.87 4.778 2.775 8.284 2.582 2.351-.135 4.066-.636 5.646-1.657l1.175-.77.501.847c.944 1.638 1.907 1.83 4.258.848 1.56-.655 2.774-1.638 2.774-2.235 0-.212-.231-1.021-.52-1.811l-.539-1.426-.097-11.464c-.058-6.3-.173-11.58-.27-11.733-.732-1.137-6.049-1.137-6.782 0-.096.154-.211 4.643-.269 10-.097 9.016-.116 9.787-.463 10.404-.886 1.695-2.447 2.523-4.701 2.485-2.216-.02-3.468-.79-3.872-2.37-.135-.578-.212-3.988-.212-10.481v-9.614l-.501-.501c-.675-.675-2.235-.925-4.451-.694ZM156.389 32.531c-1.271.135-2.023.559-2.292 1.272-.116.308-.155 5.51-.135 13.853l.058 13.37.481.482c1.253 1.253 6.031 1.06 6.744-.27.115-.25.192-5.009.192-13.93 0-14.95.058-14.18-1.213-14.584-.848-.27-2.505-.347-3.835-.193ZM100.767 32.859c-1.06.52-1.465 1.541-1.465 3.602.02 3.045.752 3.835 3.468 3.796a29.16 29.16 0 0 0 2.37-.154l.809-.116v10.27c0 7.841.058 10.404.251 10.77.424.848 1.349 1.156 3.564 1.156 2.235 0 3.121-.27 3.488-1.079.154-.347.211-3.564.211-11.06V39.449h.733c1.888-.039 4.643-.366 5.182-.636.309-.173.694-.578.829-.905.366-.867.135-3.083-.405-4.046-.77-1.368-.655-1.35-10.038-1.35-7.552 0-8.4.04-8.997.348Z"/></g></svg>